<?xml version="1.0" encoding="UTF-8" standalone="no"?>
<!-- Created with Inkscape (http://www.inkscape.org/) -->

<svg
   width="210mm"
   height="297mm"
   viewBox="0 0 210 297"
   version="1.1"
   id="svg5"
   xml:space="preserve"
   inkscape:version="1.2.2 (b0a8486541, 2022-12-01)"
   sodipodi:docname="drawing.svg"
   xmlns:inkscape="http://www.inkscape.org/namespaces/inkscape"
   xmlns:sodipodi="http://sodipodi.sourceforge.net/DTD/sodipodi-0.dtd"
   xmlns="http://www.w3.org/2000/svg"
   xmlns:svg="http://www.w3.org/2000/svg"><sodipodi:namedview
     id="namedview7"
     pagecolor="#ffffff"
     bordercolor="#666666"
     borderopacity="1.0"
     inkscape:showpageshadow="2"
     inkscape:pageopacity="0.0"
     inkscape:pagecheckerboard="0"
     inkscape:deskcolor="#d1d1d1"
     inkscape:document-units="mm"
     showgrid="false"
     inkscape:zoom="0.90884795"
     inkscape:cx="116.08102"
     inkscape:cy="651.92423"
     inkscape:window-width="1920"
     inkscape:window-height="1011"
     inkscape:window-x="0"
     inkscape:window-y="0"
     inkscape:window-maximized="1"
     inkscape:current-layer="layer1" /><defs
     id="defs2" /><g
     inkscape:label="Layer 1"
     inkscape:groupmode="layer"
     id="layer1"><path
       style="fill:#c73b30;fill-opacity:1;stroke-width:0.352778"
       d="M 45.136896,236.71821 C 29.102675,234.6801 22.895692,224.44544 22.559118,212.43293 v -56.26806 c 0,-53.74073 0.02957,-56.386887 0.658284,-58.913887 0.727948,-2.925832 3.151077,-8.313732 4.60104,-10.230562 3.132977,-4.14173 7.919541,-7.83769 12.407203,-9.58025 5.582541,-2.16771 2.237657,-2.06141 64.867575,-2.06141 63.02083,0 60.1381,-0.0946 65.78287,2.15798 8.43481,3.36591 14.76501,11.05511 16.6343,20.205452 0.67368,3.297737 0.68996,4.924047 0.59608,59.569687 l -0.0965,56.17938 c -0.62056,9.98911 -6.02893,14.14793 -10.87276,17.9389 -5.12373,3.88947 -9.61447,5.47316 -16.37737,5.7756 l -4.32152,0.19326 v -29.62629 c 0,-28.25344 -0.0299,-29.65334 -0.64514,-30.21013 -0.9434,-0.85376 -15.23614,-0.87995 -16.08661,-0.0295 -0.49516,0.49516 -0.55437,3.71639 -0.55437,30.1625 v 29.60815 h -3.70416 -3.70417 v -20.23004 c 0,-19.15052 -0.0344,-20.26121 -0.64514,-20.81389 -0.55723,-0.50429 -1.6554,-0.58385 -8.05921,-0.58385 -6.73461,0 -7.46758,0.0591 -7.99792,0.64514 -0.52894,0.58447 -0.58384,2.54172 -0.58384,20.81389 v 20.16875 h -3.88056 -3.88055 v -17.08452 c 0,-15.06102 -0.0657,-17.15018 -0.55437,-17.63889 -0.46744,-0.46745 -1.67376,-0.55437 -7.693683,-0.55437 -5.215748,0 -7.304461,0.12076 -7.752228,0.44817 -0.566296,0.41408 -0.616662,1.75537 -0.662372,17.63889 l -0.04947,17.19072 h -3.925411 -3.925412 l -0.06949,-11.34544 c -0.04722,-7.70957 -0.195188,-11.4969 -0.461726,-11.81805 -0.305379,-0.36796 -2.059563,-0.47262 -7.921354,-0.47262 -7.082762,0 -7.550764,0.0404 -7.894306,0.68236 -0.229609,0.42903 -0.365189,4.81658 -0.365189,11.81806 v 11.13569 L 56.514,237.27495 c -3.820764,-0.14139 -7.721066,0.10134 -11.377104,-0.55674 z m 14.111112,-26.53349 c 0.582083,-0.36193 3.518959,-2.78694 6.526389,-5.38892 3.007431,-2.60197 9.436806,-8.14444 14.287501,-12.31661 4.850695,-4.17217 10.618615,-9.13384 12.817599,-11.02595 l 3.99815,-3.44018 1.52448,1.15854 c 0.83847,0.6372 4.007723,3.06355 7.042793,5.39188 7.94279,6.09327 8.59466,6.52639 9.82238,6.52639 1.13994,0 2.11129,-0.70865 7.30433,-5.32893 1.45521,-1.29471 7.86541,-6.91193 14.2449,-12.48271 l 11.59908,-10.1287 3.11835,3.1039 c 1.71509,1.70715 3.21636,3.0059 3.33615,2.8861 0.56968,-0.56968 5.92197,-23.93142 5.56467,-24.28873 -0.16298,-0.16298 -0.93043,-0.14613 -1.70543,0.0374 -2.81047,0.66572 -16.64617,3.80566 -19.31258,4.38289 -1.62834,0.3525 -2.73403,0.76939 -2.73403,1.03084 0,0.24144 1.13545,1.67124 2.52322,3.17734 l 2.52322,2.73835 -0.84752,0.8024 c -0.46614,0.44132 -4.10191,3.63547 -8.07948,7.09809 -3.97757,3.46263 -9.29569,8.12128 -11.81805,10.35256 -2.52236,2.23128 -4.91785,4.34715 -5.3233,4.70192 -0.72243,0.63214 -0.77182,0.61794 -2.46944,-0.71011 -3.7291,-2.91728 -14.138653,-10.93098 -15.183703,-11.68903 -0.92815,-0.67325 -1.22812,-0.73465 -1.8813,-0.38508 -0.72722,0.3892 -10.441296,8.62632 -16.137867,13.68423 -1.554618,1.38032 -2.70686,2.15635 -2.964924,1.99686 -0.254971,-0.15758 -0.329696,-0.11136 -0.188726,0.11673 0.133477,0.21598 -4.972876,4.8627 -11.929255,10.85548 -6.689447,5.76283 -12.260882,10.78742 -12.380966,11.16577 -0.26058,0.82102 0.942196,2.75559 3.138039,5.0473 1.703071,1.77742 2.069497,1.87246 3.58532,0.92993 z M 85.72752,169.14581 c 4.668315,-3.98196 8.825067,-7.42041 9.237227,-7.64099 0.95556,-0.5114 2.74591,-0.515 3.69431,-0.007 0.40452,0.2165 3.688153,2.7282 7.296953,5.58156 7.54166,5.96295 8.26975,6.47311 9.00998,6.31305 0.74052,-0.16011 20.65842,-17.59842 20.65842,-18.08663 0,-0.21419 -0.86988,-1.57686 -1.93306,-3.02815 -2.74479,-3.74676 -2.61701,-5.53575 0.44962,-6.29511 0.71888,-0.178 6.13391,-1.38613 12.0334,-2.68473 5.8995,-1.2986 11.073,-2.49288 11.49666,-2.65395 0.59608,-0.22663 1.0332,-1.11752 1.93276,-3.93917 2.01426,-6.31815 3.15453,-10.69174 2.86394,-10.98479 -0.15431,-0.15561 -3.20125,0.42695 -6.77097,1.29458 -10.45966,2.54224 -10.38188,2.5293 -11.35823,1.88957 -0.51137,-0.33507 -1.00304,-1.15848 -1.24237,-2.08065 -0.21785,-0.83937 -0.73829,-2.84618 -1.15655,-4.45957 l -0.76048,-2.93344 c -4.62375,4.93521 -8.67229,9.84326 -12.92571,14.24535 -2.59622,2.67456 -3.80909,3.06093 -4.8106,1.53245 -0.51484,-0.78576 -0.47416,-1.31634 0.54769,-7.14375 0.60712,-3.46222 1.47955,-8.51745 1.93875,-11.23384 0.45919,-2.71639 1.24095,-7.23675 1.73723,-10.04525 0.49627,-2.8085 0.90232,-5.22944 0.90232,-5.37986 0,-0.73155 -1.52865,-0.0328 -5.5759,2.54872 -4.50956,2.87641 -5.64349,3.25514 -6.96815,2.32731 -0.38863,-0.27221 -2.84489,-4.87146 -5.45836,-10.220559 -2.61347,-5.3491 -4.95923,-9.73014 -5.2128,-9.73564 -0.25357,-0.005 -1.021,1.22031 -1.70539,2.72403 -3.09224,6.79417 -7.984893,16.211609 -8.797393,16.933329 -0.491471,0.43657 -1.255394,0.79375 -1.697608,0.79375 -0.77386,0 -4.336807,-2.0085 -8.312803,-4.6861 -2.02915,-1.3665 -2.485492,-1.38703 -2.485492,-0.11181 0,0.4427 1.260041,7.93426 2.800089,16.64793 2.533505,14.33469 2.751042,15.91861 2.284924,16.63679 -0.350185,0.53955 -0.862792,0.79375 -1.600645,0.79375 -1.282947,0 -1.078061,0.19742 -9.793464,-9.43681 -3.554342,-3.92906 -6.572388,-7.14375 -6.706772,-7.14375 -0.134383,0 -0.696979,1.85591 -1.250216,4.12425 -1.028838,4.21834 -1.895465,5.75353 -3.247909,5.75353 -0.337001,0 -3.717657,-0.82123 -7.512565,-1.82497 -7.792616,-2.06111 -9.398839,-2.26348 -9.315002,-1.17364 0.02985,0.38806 1.270463,4.66794 2.756914,9.51086 2.190239,7.13589 2.633532,8.95697 2.338142,9.60528 -0.239529,0.52571 -1.528439,1.3439 -3.759433,2.38644 -1.867216,0.87256 -3.34068,1.72852 -3.274363,1.90214 0.174302,0.45632 5.326163,4.71261 17.759465,14.67225 6.014862,4.81818 11.075473,8.99942 11.245801,9.29165 0.170329,0.29222 0.209102,1.49367 0.08616,2.66988 l -0.223524,2.13856 1.14856,-1.07323 c 0.631705,-0.59028 4.968085,-4.3312 9.636401,-8.31317 z"
       id="path179"
       sodipodi:nodetypes="ccssssscssccscsssscccssssscccssssscccsssssccccssscssssscssscssscssssssssssssscccscsssssssssssssccsssssssscssssssssssssssssssssscscc" /></g></svg>
